<?xml version="1.0" encoding="iso-8859-1"?>
<!-- Generator: Adobe Illustrator 19.0.0, SVG Export Plug-In . SVG Version: 6.00 Build 0)  -->
<svg version="1.1" id="Layer_1" xmlns="http://www.w3.org/2000/svg" xmlns:xlink="http://www.w3.org/1999/xlink" x="0px" y="0px"
	 viewBox="0 0 512 512" style="enable-background:new 0 0 512 512;" xml:space="preserve">
<g>
	<g>
		<path d="M501.801,105.277H345.384v-22.62c0-23.074-18.772-41.845-41.845-41.845h-95.076c-23.074,0-41.845,18.772-41.845,41.845
			v22.62H10.199C4.566,105.277,0,109.843,0,115.476v345.512c0,5.633,4.566,10.199,10.199,10.199h491.602
			c5.633,0,10.199-4.566,10.199-10.199V115.476C512,109.843,507.434,105.277,501.801,105.277z M187.015,82.657
			c0-11.826,9.621-21.447,21.447-21.447h95.076c11.826,0,21.447,9.621,21.447,21.447v22.62h-137.97V82.657z M491.602,450.789H20.398
			V125.676h471.203V450.789z"/>
	</g>
</g>
<g>
	<g>
		<path d="M431.197,399.44h-15.872V171.743c0-5.633-4.566-10.199-10.199-10.199h-70.913c-5.633,0-10.199,4.566-10.199,10.199V399.44
			h-22.358V231.184c0-5.633-4.566-10.199-10.199-10.199h-70.913c-5.633,0-10.199,4.566-10.199,10.199v168.254h-22.358V292.712
			c0-5.633-4.566-10.199-10.199-10.199h-70.913c-5.633,0-10.199,4.566-10.199,10.199V399.44H80.803
			c-5.633,0-10.199,4.566-10.199,10.199c0,5.633,4.566,10.199,10.199,10.199h350.394c5.633,0,10.199-4.566,10.199-10.199
			C441.396,404.006,436.83,399.44,431.197,399.44z M167.588,399.44h-50.515v-96.528h50.515V399.44z M281.257,399.439h-50.515
			V241.384h50.515V399.439z M394.926,399.44h-50.515V181.943h50.515V399.44z"/>
	</g>
</g>
<g>
	<g>
		<path d="M158.434,140.634H48.544c-5.633,0-10.199,4.566-10.199,10.199s4.566,10.199,10.199,10.199h109.89
			c5.633,0,10.199-4.566,10.199-10.199C168.634,145.2,164.067,140.634,158.434,140.634z"/>
	</g>
</g>
<g>
	<g>
		<path d="M198.488,140.634h-6.162c-5.633,0-10.199,4.566-10.199,10.199s4.566,10.199,10.199,10.199h6.162
			c5.633,0,10.199-4.566,10.199-10.199S204.121,140.634,198.488,140.634z"/>
	</g>
</g>
<g>
</g>
<g>
</g>
<g>
</g>
<g>
</g>
<g>
</g>
<g>
</g>
<g>
</g>
<g>
</g>
<g>
</g>
<g>
</g>
<g>
</g>
<g>
</g>
<g>
</g>
<g>
</g>
<g>
</g>
</svg>
